# xmcd
#
# Track frame offsets: 
#        150
#        21262
#        38062
#        50502
#        71210
#        92857
#        107792
#        123032
#        140647
#        153207
#        165662
#
# Disc length: 2479 seconds
#
# Revision: 2
# Processed by: cddbd v1.5.2PL0 Copyright (c) Steve Scherf et al.
# Submitted via: ExactAudioCopy v0.95a5
#
DISCID=9209ad0b
DTITLE=Poco - Indian Summer
DYEAR=1900
DGENRE=Country Rock
TTITLE0=Indian Summer
TTITLE1=Twenty Years
TTITLE2=Me And You
TTITLE3=Downfall
TTITLE4=Win Or Lose
TTITLE5=Living In The Band
TTITLE6=Stay [Night Until Noon]
TTITLE7=Find Out In Time
TTITLE8=When The Dance Is Over
TTITLE9=Go on and dance
TTITLE10=Never Gonna Stop-When The Dance Is Over [Reprise]
EXTD=
EXTT0=
EXTT1=
EXTT2=
EXTT3=
EXTT4=
EXTT5=
EXTT6=
EXTT7=
EXTT8=
EXTT9=
EXTT10=
PLAYORDER=
